<svg viewBox="0 0 720 360" width="100%" xmlns="http://www.w3.org/2000/svg" role="img" aria-label="custom buff order (income)">
  <rect width="720" height="360" fill="#1d2026"/>
  <text x="70" y="16" font-size="12" font-weight="700" fill="#e8ecf2">custom buff order (income)</text>
  <text x="62" y="36" font-size="10" fill="#9aa4b2" text-anchor="end">count</text>
  <rect x="70" y="287.6363636363636" width="25.24999999999997" height="26.363636363636374" fill="#3a414d" stroke="#252a33" rx="1"/><rect x="96.24999999999997" y="287.6363636363636" width="25.249999999999957" height="26.363636363636374" fill="#3a414d" stroke="#252a33" rx="1"/><rect x="122.49999999999993" y="256.8787878787879" width="25.249999999999957" height="57.121212121212125" fill="#3a414d" stroke="#252a33" rx="1"/><rect x="148.7499999999999" y="226.12121212121212" width="25.24999999999997" height="87.87878787878788" fill="#3a414d" stroke="#252a33" rx="1"/><rect x="174.99999999999986" y="234.90909090909093" width="25.249999999999943" height="79.09090909090907" fill="#3a414d" stroke="#252a33" rx="1"/><rect x="201.2500000000001" y="94.30303030303031" width="25.249999999999943" height="219.6969696969697" fill="#3a414d" stroke="#252a33" rx="1"/><rect x="227.50000000000006" y="37.18181818181819" width="25.25" height="276.8181818181818" fill="#3a414d" stroke="#252a33" rx="1"/><rect x="253.75000000000006" y="32.78787878787875" width="25.249999999999943" height="281.21212121212125" fill="#3a414d" stroke="#252a33" rx="1"/><rect x="280" y="24" width="25.25" height="290" fill="#3a414d" stroke="#252a33" rx="1"/><rect x="306.25" y="129.45454545454547" width="25.249999999999943" height="184.54545454545453" fill="#3a414d" stroke="#252a33" rx="1"/><rect x="332.49999999999994" y="173.39393939393938" width="25.249999999999943" height="140.60606060606062" fill="#3a414d" stroke="#252a33" rx="1"/><rect x="358.7499999999999" y="256.8787878787879" width="25.25" height="57.121212121212125" fill="#3a414d" stroke="#252a33" rx="1"/><rect x="385.0000000000001" y="292.030303030303" width="25.25" height="21.969696969696997" fill="#3a414d" stroke="#252a33" rx="1"/><rect x="411.2500000000001" y="305.2121212121212" width="25.25" height="8.78787878787881" fill="#3a414d" stroke="#252a33" rx="1"/><rect x="437.5000000000001" y="314" width="25.249999999999943" height="0" fill="#3a414d" stroke="#252a33" rx="1"/><rect x="463.75000000000006" y="314" width="25.249999999999943" height="0" fill="#3a414d" stroke="#252a33" rx="1"/><rect x="490" y="314" width="25.25" height="0" fill="#3a414d" stroke="#252a33" rx="1"/><rect x="516.25" y="314" width="25.25" height="0" fill="#3a414d" stroke="#252a33" rx="1"/><rect x="542.5" y="314" width="25.249999999999886" height="0" fill="#3a414d" stroke="#252a33" rx="1"/><rect x="568.7499999999999" y="314" width="25.25" height="0" fill="#3a414d" stroke="#252a33" rx="1"/><rect x="594.9999999999999" y="314" width="25.249999999999886" height="0" fill="#3a414d" stroke="#252a33" rx="1"/><rect x="621.2499999999998" y="314" width="25.25" height="0" fill="#3a414d" stroke="#252a33" rx="1"/><rect x="647.5" y="314" width="25.25" height="0" fill="#3a414d" stroke="#252a33" rx="1"/><rect x="673.75" y="314" width="25.25" height="0" fill="#3a414d" stroke="#252a33" rx="1"/>
  <path d="M70.0 309.9L73.1 309.2L76.3 308.5L79.4 307.8L82.6 306.9L85.7 305.9L88.9 304.8L92.0 303.6L95.2 302.2L98.3 300.7L101.5 299.0L104.6 297.2L107.8 295.2L110.9 292.9L114.1 290.5L117.2 287.9L120.4 285.0L123.5 281.9L126.7 278.6L129.8 275.0L133.0 271.1L136.1 266.9L139.3 262.5L142.4 257.7L145.6 252.7L148.7 247.4L151.9 241.8L155.0 235.9L158.2 229.7L161.3 223.3L164.5 216.5L167.6 209.6L170.8 202.3L173.9 194.9L177.1 187.3L180.2 179.4L183.4 171.5L186.5 163.4L189.7 155.2L192.8 147.0L196.0 138.7L199.1 130.5L202.3 122.3L205.4 114.2L208.6 106.3L211.7 98.6L214.9 91.1L218.0 83.8L221.2 76.9L224.3 70.4L227.5 64.2L230.6 58.5L233.8 53.3L236.9 48.6L240.1 44.4L243.2 40.8L246.4 37.8L249.5 35.4L252.7 33.6L255.8 32.5L259.0 32.0L262.1 32.2L265.3 33.1L268.4 34.6L271.6 36.7L274.7 39.5L277.9 42.8L281.0 46.8L284.2 51.3L287.3 56.3L290.5 61.8L293.6 67.8L296.8 74.2L299.9 81.0L303.1 88.1L306.2 95.5L309.4 103.1L312.5 111.0L315.7 119.0L318.8 127.1L322.0 135.3L325.1 143.6L328.3 151.8L331.4 160.0L334.6 168.2L337.7 176.2L340.9 184.1L344.0 191.8L347.2 199.3L350.3 206.6L353.5 213.7L356.6 220.5L359.8 227.1L362.9 233.4L366.1 239.4L369.2 245.1L372.4 250.6L375.5 255.7L378.7 260.6L381.8 265.1L385.0 269.4L388.1 273.4L391.3 277.1L394.4 280.6L397.6 283.8L400.7 286.7L403.9 289.5L407.0 292.0L410.2 294.3L413.3 296.4L416.5 298.3L419.6 300.0L422.8 301.6L425.9 303.0L429.1 304.3L432.2 305.5L435.4 306.5L438.5 307.4L441.7 308.2L444.8 309.0L448.0 309.6L451.1 310.2L454.3 310.7L457.4 311.1L460.6 311.5L463.7 311.9L466.9 312.2L470.0 312.4L473.2 312.7L476.3 312.9L479.5 313.0L482.6 313.2L485.8 313.3L488.9 313.4L492.1 313.5L495.2 313.6L498.4 313.6L501.5 313.7L504.7 313.8L507.8 313.8L511.0 313.8L514.1 313.9L517.3 313.9L520.4 313.9L523.6 313.9L526.7 313.9L529.9 313.9L533.0 314.0L536.2 314.0L539.3 314.0L542.5 314.0L545.6 314.0L548.8 314.0L551.9 314.0L555.1 314.0L558.2 314.0L561.4 314.0L564.5 314.0L567.7 314.0L570.8 314.0L574.0 314.0L577.1 314.0L580.3 314.0L583.4 314.0L586.6 314.0L589.7 314.0L592.9 314.0L596.0 314.0L599.2 314.0L602.3 314.0L605.5 314.0L608.6 314.0L611.8 314.0L614.9 314.0L618.1 314.0L621.2 314.0L624.4 314.0L627.5 314.0L630.7 314.0L633.8 314.0L637.0 314.0L640.1 314.0L643.3 314.0L646.4 314.0L649.6 314.0L652.7 314.0L655.9 314.0L659.0 314.0L662.2 314.0L665.3 314.0L668.5 314.0L671.6 314.0L674.8 314.0L677.9 314.0L681.1 314.0L684.2 314.0L687.4 314.0L690.5 314.0L693.7 314.0L696.8 314.0L700.0 314.0" fill="none" stroke="#7ec86a" stroke-width="2" opacity="0.9"/>
  <line x1="700" y1="24" x2="700" y2="314" stroke="#e0a53a" stroke-width="3"/>
  <text x="700" y="34" font-size="11" fill="#e0a53a" font-weight="700">optimizer 3643</text>
  <text x="70" y="334" text-anchor="middle" font-size="10" fill="#9aa4b2">2673</text><text x="174.99999999999986" y="334" text-anchor="middle" font-size="10" fill="#9aa4b2">2835</text><text x="280" y="334" text-anchor="middle" font-size="10" fill="#9aa4b2">2996</text><text x="385.0000000000001" y="334" text-anchor="middle" font-size="10" fill="#9aa4b2">3158</text><text x="490" y="334" text-anchor="middle" font-size="10" fill="#9aa4b2">3320</text><text x="595.0000000000001" y="334" text-anchor="middle" font-size="10" fill="#9aa4b2">3481</text><text x="700" y="334" text-anchor="middle" font-size="10" fill="#9aa4b2">3643</text>
  <text x="70" y="354" font-size="10" fill="#9aa4b2">income/day (gold)</text>
</svg>